<svg width="24" height="24" viewBox="0 0 24 24" fill="none" xmlns="http://www.w3.org/2000/svg">
<g clip-path="url(#clip0_1_1399)">
<path d="M19.0711 17.9663L13.1049 12L19.0711 6.03383C19.3762 5.72873 19.3762 5.23408 19.0711 4.92898C18.766 4.62387 18.2713 4.62387 17.9662 4.92898L12 10.8952L6.03379 4.92898C5.72868 4.62387 5.23404 4.62387 4.92893 4.92898C4.62383 5.23408 4.62383 5.72873 4.92893 6.03383L10.8951 12L4.92893 17.9663C4.62383 18.2714 4.62383 18.766 4.92893 19.0711C5.23404 19.3762 5.72868 19.3762 6.03379 19.0711L12 13.1049L17.9662 19.0711C18.2713 19.3762 18.766 19.3762 19.0711 19.0711C19.3762 18.766 19.3762 18.2714 19.0711 17.9663Z" fill="#0D253C"/>
</g>
<defs>
<clipPath id="clip0_1_1399">
<rect width="24" height="24" fill="white"/>
</clipPath>
</defs>
</svg>
