<svg width="24" height="24" viewBox="0 0 24 24" fill="none" xmlns="http://www.w3.org/2000/svg">
<path d="M21.9373 5.07001C21.5193 4.65049 21.0225 4.31762 20.4755 4.0905C19.9285 3.86337 19.3421 3.74646 18.7498 3.74646C18.1576 3.74646 17.5711 3.86337 17.0241 4.0905C16.4772 4.31762 15.9804 4.65049 15.5623 5.07001L16.6273 6.13501C16.9065 5.85579 17.238 5.63429 17.6028 5.48318C17.9677 5.33206 18.3587 5.25429 18.7536 5.25429C19.1484 5.25429 19.5395 5.33206 19.9043 5.48318C20.2691 5.63429 20.6006 5.85579 20.8798 6.13501C21.159 6.41423 21.3805 6.74572 21.5316 7.11054C21.6828 7.47536 21.7605 7.86638 21.7605 8.26126C21.7605 8.65614 21.6828 9.04715 21.5316 9.41198C21.3805 9.7768 21.159 10.1083 20.8798 10.3875L14.8798 16.3875C14.3169 16.9514 13.553 17.2686 12.7562 17.2693C11.9594 17.27 11.195 16.9542 10.6311 16.3913C10.0672 15.8283 9.74995 15.0645 9.74925 14.2677C9.74854 13.4709 10.0644 12.7064 10.6273 12.1425L11.6848 11.0775L10.6273 10.0125L9.56232 11.0775C9.1428 11.4956 8.80993 11.9923 8.58281 12.5393C8.35568 13.0863 8.23877 13.6727 8.23877 14.265C8.23877 14.8573 8.35568 15.4437 8.58281 15.9907C8.80993 16.5377 9.1428 17.0344 9.56232 17.4525C10.4109 18.2903 11.5574 18.7569 12.7498 18.75C13.3444 18.7525 13.9335 18.6371 14.4832 18.4105C15.0328 18.1839 15.5322 17.8507 15.9523 17.43L21.9523 11.43C22.793 10.5843 23.2637 9.43941 23.2609 8.2469C23.258 7.0544 22.782 5.91177 21.9373 5.07001Z" fill="white"/>
<path d="M3.14235 18.615C2.8623 18.3362 2.64007 18.0049 2.48843 17.64C2.3368 17.2751 2.25873 16.8839 2.25873 16.4887C2.25873 16.0936 2.3368 15.7024 2.48843 15.3375C2.64007 14.9726 2.8623 14.6412 3.14235 14.3625L9.14235 8.36249C9.42111 8.08243 9.75245 7.86021 10.1173 7.70857C10.4822 7.55693 10.8735 7.47887 11.2686 7.47887C11.6637 7.47887 12.055 7.55693 12.4199 7.70857C12.7848 7.86021 13.1161 8.08243 13.3949 8.36249C13.6731 8.64344 13.8922 8.97739 14.0391 9.34455C14.1859 9.71171 14.2576 10.1046 14.2499 10.5C14.2521 10.8966 14.1758 11.2897 14.0251 11.6566C13.8745 12.0235 13.6527 12.3569 13.3724 12.6375L11.7824 14.25L12.8474 15.315L14.4374 13.725C15.2837 12.8786 15.7592 11.7307 15.7592 10.5337C15.7592 9.33679 15.2837 8.18886 14.4374 7.34249C13.591 6.49612 12.4431 6.02063 11.2461 6.02063C10.0492 6.02063 8.90123 6.49612 8.05485 7.34249L2.05486 13.3425C1.63421 13.7607 1.30039 14.2579 1.0726 14.8056C0.844807 15.3533 0.727539 15.9406 0.727539 16.5337C0.727539 17.1269 0.844807 17.7142 1.0726 18.2619C1.30039 18.8096 1.63421 19.3068 2.05486 19.725C2.90897 20.5563 4.05803 21.0149 5.24986 21C6.45218 21.0011 7.60614 20.5266 8.45986 19.68L7.39485 18.615C7.1161 18.895 6.78476 19.1173 6.41988 19.2689C6.05499 19.4205 5.66375 19.4986 5.26861 19.4986C4.87347 19.4986 4.48222 19.4205 4.11733 19.2689C3.75245 19.1173 3.42111 18.895 3.14235 18.615Z" fill="white"/>
</svg>
