<svg width="162" height="82" viewBox="0 0 162 82" fill="none" xmlns="http://www.w3.org/2000/svg">
<rect width="150" height="45" rx="8" fill="#376AED"/>
<path d="M8 8.69959H17.5611C18.753 8.69959 19.8542 8.8421 20.8647 9.12712C21.9012 9.41214 22.7821 9.83967 23.5076 10.4097C24.2591 10.9538 24.842 11.6664 25.2566 12.5474C25.6971 13.4024 25.9173 14.4129 25.9173 15.5789C25.9173 17.1595 25.4769 18.455 24.5959 19.4655C23.7149 20.4502 22.5748 21.1757 21.1757 21.6421V21.7198C22.0048 21.7716 22.7821 21.9919 23.5076 22.3805C24.2331 22.7433 24.855 23.2356 25.3732 23.8574C25.9173 24.4534 26.3449 25.153 26.6558 25.9562C26.9667 26.7594 27.1222 27.6275 27.1222 28.5602C27.1222 29.804 26.8631 30.9052 26.3449 31.8639C25.8526 32.7967 25.1659 33.587 24.285 34.2347C23.404 34.8825 22.3805 35.3748 21.2145 35.7116C20.0485 36.0485 18.7919 36.2169 17.4445 36.2169H8V8.69959ZM11.7312 20.1263H16.8226C17.5222 20.1263 18.183 20.0615 18.8048 19.9319C19.4267 19.7765 19.9708 19.5303 20.4372 19.1935C20.9036 18.8566 21.2663 18.4291 21.5255 17.9109C21.8105 17.3927 21.953 16.7579 21.953 16.0064C21.953 14.9182 21.6032 13.9724 20.9036 13.1692C20.204 12.366 19.1028 11.9644 17.6 11.9644H11.7312V20.1263ZM11.7312 32.9521H17.2113C17.7813 32.9521 18.4032 32.9003 19.0769 32.7967C19.7765 32.6671 20.4242 32.4339 21.0202 32.0971C21.6161 31.7343 22.1214 31.255 22.536 30.659C22.9506 30.0631 23.1578 29.2728 23.1578 28.2882C23.1578 26.6558 22.6267 25.438 21.5643 24.6348C20.502 23.8056 19.0639 23.391 17.2502 23.391H11.7312V32.9521Z" fill="white"/>
<path d="M43.4156 8.69959H47.1467V32.7189H59.7783V36.2169H43.4156V8.69959Z" fill="white"/>
<path d="M87.1357 36.9165C85.037 36.9165 83.1066 36.5537 81.3447 35.8282C79.5827 35.0768 78.0669 34.0533 76.7973 32.7578C75.5536 31.4623 74.569 29.9335 73.8435 28.1716C73.1439 26.4096 72.7941 24.5052 72.7941 22.4582C72.7941 20.4113 73.1439 18.5068 73.8435 16.7449C74.569 14.983 75.5536 13.4542 76.7973 12.1587C78.0669 10.8631 79.5827 9.85262 81.3447 9.12712C83.1066 8.37571 85.037 8 87.1357 8C89.2345 8 91.1649 8.37571 92.9268 9.12712C94.6887 9.85262 96.1916 10.8631 97.4353 12.1587C98.7049 13.4542 99.6895 14.983 100.389 16.7449C101.115 18.5068 101.477 20.4113 101.477 22.4582C101.477 24.5052 101.115 26.4096 100.389 28.1716C99.6895 29.9335 98.7049 31.4623 97.4353 32.7578C96.1916 34.0533 94.6887 35.0768 92.9268 35.8282C91.1649 36.5537 89.2345 36.9165 87.1357 36.9165ZM87.1357 33.4185C88.7163 33.4185 90.1414 33.1335 91.411 32.5635C92.6807 31.9675 93.7689 31.1772 94.6758 30.1926C95.5827 29.208 96.2823 28.055 96.7746 26.7335C97.2669 25.3862 97.513 23.9611 97.513 22.4582C97.513 20.9554 97.2669 19.5433 96.7746 18.2218C96.2823 16.8745 95.5827 15.7085 94.6758 14.7239C93.7689 13.7392 92.6807 12.9619 91.411 12.3919C90.1414 11.7959 88.7163 11.498 87.1357 11.498C85.5552 11.498 84.1301 11.7959 82.8605 12.3919C81.5908 12.9619 80.5026 13.7392 79.5957 14.7239C78.6888 15.7085 77.9892 16.8745 77.4969 18.2218C77.0046 19.5433 76.7585 20.9554 76.7585 22.4582C76.7585 23.9611 77.0046 25.3862 77.4969 26.7335C77.9892 28.055 78.6888 29.208 79.5957 30.1926C80.5026 31.1772 81.5908 31.9675 82.8605 32.5635C84.1301 33.1335 85.5552 33.4185 87.1357 33.4185Z" fill="white"/>
<path d="M141.213 20.8259V34.3902C140.539 34.8048 139.775 35.1675 138.92 35.4784C138.065 35.7894 137.171 36.0485 136.238 36.2558C135.331 36.489 134.398 36.6574 133.44 36.761C132.507 36.8647 131.626 36.9165 130.797 36.9165C128.465 36.9165 126.379 36.5278 124.539 35.7505C122.725 34.9732 121.184 33.9238 119.914 32.6023C118.67 31.2809 117.712 29.7521 117.038 28.0161C116.39 26.2542 116.066 24.4016 116.066 22.4582C116.066 20.4113 116.416 18.5068 117.116 16.7449C117.841 14.983 118.826 13.4542 120.07 12.1587C121.339 10.8631 122.855 9.85262 124.617 9.12712C126.379 8.37571 128.309 8 130.408 8C132.947 8 135.02 8.32389 136.627 8.97166C138.233 9.59352 139.58 10.4615 140.669 11.5757L138.026 14.4129C136.886 13.3247 135.681 12.5733 134.411 12.1587C133.142 11.7182 131.807 11.498 130.408 11.498C128.827 11.498 127.402 11.7959 126.133 12.3919C124.863 12.9619 123.775 13.7392 122.868 14.7239C121.961 15.7085 121.262 16.8745 120.769 18.2218C120.277 19.5433 120.031 20.9554 120.031 22.4582C120.031 24.0129 120.303 25.4639 120.847 26.8113C121.391 28.1327 122.143 29.2858 123.101 30.2704C124.06 31.255 125.187 32.0323 126.483 32.6023C127.778 33.1465 129.19 33.4185 130.719 33.4185C132.04 33.4185 133.284 33.3019 134.45 33.0687C135.642 32.8096 136.653 32.4469 137.482 31.9805V24.3238H131.38V20.8259H141.213Z" fill="white"/>
<path d="M53.6558 59.7223C52.8785 58.7118 51.8939 57.9345 50.702 57.3903C49.5101 56.8462 48.2793 56.5741 47.0097 56.5741C45.4551 56.5741 44.0429 56.8721 42.7733 57.4681C41.5296 58.0381 40.4543 58.8284 39.5474 59.8389C38.6664 60.8494 37.9798 62.0413 37.4875 63.4146C36.9952 64.762 36.749 66.213 36.749 67.7676C36.749 69.2186 36.9822 70.5919 37.4486 71.8874C37.915 73.183 38.5887 74.3231 39.4697 75.3077C40.3506 76.2923 41.4259 77.0696 42.6956 77.6396C43.9652 78.2097 45.4032 78.4947 47.0097 78.4947C48.5903 78.4947 49.9765 78.1708 51.1684 77.523C52.3603 76.8753 53.3708 75.9684 54.2 74.8024L57.3481 77.1732C57.1409 77.4583 56.7781 77.8728 56.2599 78.417C55.7417 78.9352 55.055 79.4664 54.2 80.0105C53.3449 80.5287 52.3085 80.9821 51.0907 81.3708C49.8988 81.7854 48.5125 81.9927 46.932 81.9927C44.7555 81.9927 42.7862 81.5781 41.0243 80.7489C39.2883 79.9198 37.7984 78.8315 36.5547 77.4842C35.3369 76.1368 34.4041 74.621 33.7563 72.9368C33.1086 71.2267 32.7847 69.5036 32.7847 67.7676C32.7847 65.6429 33.1345 63.6867 33.8341 61.8988C34.5336 60.0851 35.5053 58.5304 36.749 57.2349C38.0187 55.9134 39.5344 54.8899 41.2964 54.1644C43.0583 53.4389 45.0016 53.0762 47.1263 53.0762C48.9401 53.0762 50.715 53.426 52.451 54.1256C54.2129 54.8252 55.651 55.9005 56.7651 57.3515L53.6558 59.7223Z" fill="#376AED"/>
<path d="M72.7949 53.7758H76.5261V77.7951H89.1576V81.2931H72.7949V53.7758Z" fill="#376AED"/>
<path d="M107.109 53.7758V70.6437C107.109 71.4988 107.226 72.3927 107.459 73.3255C107.692 74.2324 108.081 75.0745 108.625 75.8518C109.169 76.6291 109.882 77.2639 110.763 77.7562C111.644 78.2486 112.732 78.4947 114.028 78.4947C115.323 78.4947 116.411 78.2486 117.292 77.7562C118.173 77.2639 118.886 76.6291 119.43 75.8518C119.974 75.0745 120.363 74.2324 120.596 73.3255C120.829 72.3927 120.946 71.4988 120.946 70.6437V53.7758H124.677V71.2267C124.677 72.8332 124.405 74.2971 123.861 75.6186C123.317 76.9141 122.565 78.0413 121.607 79C120.648 79.9587 119.521 80.6971 118.225 81.2153C116.93 81.7336 115.531 81.9927 114.028 81.9927C112.525 81.9927 111.126 81.7336 109.83 81.2153C108.535 80.6971 107.407 79.9587 106.449 79C105.49 78.0413 104.739 76.9141 104.195 75.6186C103.65 74.2971 103.378 72.8332 103.378 71.2267V53.7758H107.109Z" fill="#376AED"/>
<path d="M142.184 53.7758H151.745C152.937 53.7758 154.038 53.9183 155.048 54.2033C156.085 54.4883 156.966 54.9158 157.691 55.4859C158.443 56.03 159.026 56.7426 159.44 57.6235C159.881 58.4786 160.101 59.4891 160.101 60.6551C160.101 62.2357 159.661 63.5312 158.78 64.5417C157.899 65.5263 156.759 66.2518 155.359 66.7182V66.796C156.189 66.8478 156.966 67.068 157.691 67.4567C158.417 67.8194 159.039 68.3117 159.557 68.9336C160.101 69.5296 160.529 70.2291 160.84 71.0324C161.15 71.8356 161.306 72.7036 161.306 73.6364C161.306 74.8801 161.047 75.9813 160.529 76.9401C160.036 77.8728 159.35 78.6631 158.469 79.3109C157.588 79.9587 156.564 80.451 155.398 80.7878C154.232 81.1247 152.976 81.2931 151.628 81.2931H142.184V53.7758ZM145.915 65.2024H151.006C151.706 65.2024 152.367 65.1377 152.989 65.0081C153.61 64.8526 154.155 64.6065 154.621 64.2697C155.087 63.9328 155.45 63.5053 155.709 62.9871C155.994 62.4688 156.137 61.834 156.137 61.0826C156.137 59.9944 155.787 59.0486 155.087 58.2454C154.388 57.4421 153.287 57.0405 151.784 57.0405H145.915V65.2024ZM145.915 78.0283H151.395C151.965 78.0283 152.587 77.9765 153.261 77.8728C153.96 77.7433 154.608 77.5101 155.204 77.1732C155.8 76.8105 156.305 76.3311 156.72 75.7352C157.134 75.1392 157.342 74.349 157.342 73.3644C157.342 71.732 156.81 70.5142 155.748 69.7109C154.686 68.8818 153.248 68.4672 151.434 68.4672H145.915V78.0283Z" fill="#376AED"/>
</svg>
