<svg width="24" height="24" viewBox="0 0 24 24" fill="none" xmlns="http://www.w3.org/2000/svg">
<path d="M15.75 4.5H3.75C3.33579 4.5 3 4.83579 3 5.25C3 5.66421 3.33579 6 3.75 6H15.75C16.1642 6 16.5 5.66421 16.5 5.25C16.5 4.83579 16.1642 4.5 15.75 4.5Z" fill="#7B8BB2"/>
<path d="M15.75 9H3.75C3.33579 9 3 9.33579 3 9.75C3 10.1642 3.33579 10.5 3.75 10.5H15.75C16.1642 10.5 16.5 10.1642 16.5 9.75C16.5 9.33579 16.1642 9 15.75 9Z" fill="#7B8BB2"/>
<path d="M15.75 13.5H3.75C3.33579 13.5 3 13.8358 3 14.25C3 14.6642 3.33579 15 3.75 15H15.75C16.1642 15 16.5 14.6642 16.5 14.25C16.5 13.8358 16.1642 13.5 15.75 13.5Z" fill="#7B8BB2"/>
<path d="M15.75 18H3.75C3.33579 18 3 18.3358 3 18.75C3 19.1642 3.33579 19.5 3.75 19.5H15.75C16.1642 19.5 16.5 19.1642 16.5 18.75C16.5 18.3358 16.1642 18 15.75 18Z" fill="#7B8BB2"/>
<path d="M19.5 5.25C19.5 5.66421 19.8358 6 20.25 6C20.6642 6 21 5.66421 21 5.25C21 4.83579 20.6642 4.5 20.25 4.5C19.8358 4.5 19.5 4.83579 19.5 5.25Z" fill="#7B8BB2"/>
<path d="M19.5 9.75C19.5 10.1642 19.8358 10.5 20.25 10.5C20.6642 10.5 21 10.1642 21 9.75C21 9.33579 20.6642 9 20.25 9C19.8358 9 19.5 9.33579 19.5 9.75Z" fill="#7B8BB2"/>
<path d="M19.5 14.25C19.5 14.6642 19.8358 15 20.25 15C20.6642 15 21 14.6642 21 14.25C21 13.8358 20.6642 13.5 20.25 13.5C19.8358 13.5 19.5 13.8358 19.5 14.25Z" fill="#7B8BB2"/>
<path d="M19.5 18.75C19.5 19.1642 19.8358 19.5 20.25 19.5C20.6642 19.5 21 19.1642 21 18.75C21 18.3358 20.6642 18 20.25 18C19.8358 18 19.5 18.3358 19.5 18.75Z" fill="#7B8BB2"/>
</svg>
