<svg width="24" height="24" viewBox="0 0 24 24" fill="none" xmlns="http://www.w3.org/2000/svg">
<path d="M19.5 8.24998H15V4.49998C15.0756 3.77993 14.862 3.05934 14.4063 2.49674C13.9506 1.93413 13.2901 1.57559 12.57 1.49998C12.3807 1.47748 12.1893 1.47748 12 1.49998H10.8225C10.5718 1.50685 10.3305 1.59674 10.1364 1.75555C9.94227 1.91436 9.80638 2.13311 9.75 2.37748V2.46748L9 7.22248L6.345 11.25H1.5V21.75H15.75C21.33 21.75 22.5 18.4875 22.5 15.75V11.25C22.5756 10.5299 22.362 9.80934 21.9063 9.24674C21.4506 8.68413 20.7901 8.32559 20.07 8.24998C19.8807 8.22748 19.6893 8.22748 19.5 8.24998ZM6 20.25H3V12.75H6V20.25ZM21 15.75C21 18.8175 19.335 20.25 15.75 20.25H7.5V12.225L10.5 7.77748L11.0475 3.74998L11.1525 2.99998H12C13.08 2.99998 13.5 3.41998 13.5 4.49998V9.74998H19.5C20.58 9.74998 21 10.17 21 11.25V15.75Z" fill="white"/>
</svg>
